<svg width="187" height="114" viewBox="0 0 187 114" fill="none" xmlns="http://www.w3.org/2000/svg">
<circle cx="40" cy="73.7605" r="40" fill="#181F63"/>
<circle cx="40" cy="40" r="40" fill="#3D8ADA"/>
<path d="M92.8438 57.7188H87.0469L87.0156 54.8594H92.0781C92.9323 54.8594 93.6562 54.7344 94.25 54.4844C94.8542 54.224 95.3125 53.8542 95.625 53.375C95.9375 52.8854 96.0938 52.2969 96.0938 51.6094C96.0938 50.849 95.9479 50.2292 95.6562 49.75C95.3646 49.2708 94.9167 48.9219 94.3125 48.7031C93.7188 48.4844 92.9583 48.375 92.0312 48.375H88.2344V68H84.3125V45.25H92.0312C93.2812 45.25 94.3958 45.3698 95.375 45.6094C96.3646 45.849 97.2031 46.224 97.8906 46.7344C98.5885 47.2344 99.1146 47.8698 99.4688 48.6406C99.8333 49.4115 100.016 50.3281 100.016 51.3906C100.016 52.3281 99.7917 53.1875 99.3438 53.9688C98.8958 54.7396 98.2344 55.3698 97.3594 55.8594C96.4844 56.349 95.3958 56.6406 94.0938 56.7344L92.8438 57.7188ZM92.6719 68H85.8125L87.5781 64.8906H92.6719C93.5573 64.8906 94.2969 64.7448 94.8906 64.4531C95.4844 64.151 95.9271 63.7396 96.2188 63.2188C96.5208 62.6875 96.6719 62.0677 96.6719 61.3594C96.6719 60.6198 96.5417 59.9792 96.2812 59.4375C96.0208 58.8854 95.6094 58.4635 95.0469 58.1719C94.4844 57.8698 93.75 57.7188 92.8438 57.7188H88.4375L88.4688 54.8594H94.2031L95.0938 55.9375C96.3438 55.9792 97.3698 56.2552 98.1719 56.7656C98.9844 57.276 99.5885 57.9375 99.9844 58.75C100.38 59.5625 100.578 60.4375 100.578 61.375C100.578 62.8229 100.26 64.0365 99.625 65.0156C99 65.9948 98.099 66.7396 96.9219 67.25C95.7448 67.75 94.3281 68 92.6719 68ZM108.719 45.25V68H104.797V45.25H108.719ZM131.734 56V57.25C131.734 58.9688 131.51 60.5104 131.062 61.875C130.615 63.2396 129.974 64.401 129.141 65.3594C128.318 66.3177 127.328 67.0521 126.172 67.5625C125.016 68.0625 123.734 68.3125 122.328 68.3125C120.932 68.3125 119.656 68.0625 118.5 67.5625C117.354 67.0521 116.359 66.3177 115.516 65.3594C114.672 64.401 114.016 63.2396 113.547 61.875C113.089 60.5104 112.859 58.9688 112.859 57.25V56C112.859 54.2812 113.089 52.7448 113.547 51.3906C114.005 50.026 114.651 48.8646 115.484 47.9062C116.328 46.9375 117.323 46.2031 118.469 45.7031C119.625 45.1927 120.901 44.9375 122.297 44.9375C123.703 44.9375 124.984 45.1927 126.141 45.7031C127.297 46.2031 128.292 46.9375 129.125 47.9062C129.958 48.8646 130.599 50.026 131.047 51.3906C131.505 52.7448 131.734 54.2812 131.734 56ZM127.812 57.25V55.9688C127.812 54.6979 127.688 53.5781 127.438 52.6094C127.198 51.6302 126.839 50.8125 126.359 50.1562C125.891 49.4896 125.312 48.9896 124.625 48.6562C123.938 48.3125 123.161 48.1406 122.297 48.1406C121.432 48.1406 120.661 48.3125 119.984 48.6562C119.307 48.9896 118.729 49.4896 118.25 50.1562C117.781 50.8125 117.422 51.6302 117.172 52.6094C116.922 53.5781 116.797 54.6979 116.797 55.9688V57.25C116.797 58.5208 116.922 59.6458 117.172 60.625C117.422 61.6042 117.786 62.4323 118.266 63.1094C118.755 63.776 119.339 64.2812 120.016 64.625C120.693 64.9583 121.464 65.125 122.328 65.125C123.203 65.125 123.979 64.9583 124.656 64.625C125.333 64.2812 125.906 63.776 126.375 63.1094C126.844 62.4323 127.198 61.6042 127.438 60.625C127.688 59.6458 127.812 58.5208 127.812 57.25ZM153.703 45.25V68H149.781L139.578 51.7031V68H135.656V45.25H139.578L149.812 61.5781V45.25H153.703ZM162.562 45.25V68H158.641V45.25H162.562ZM180.875 60.5938H184.781C184.656 62.0833 184.24 63.4115 183.531 64.5781C182.823 65.7344 181.828 66.6458 180.547 67.3125C179.266 67.9792 177.708 68.3125 175.875 68.3125C174.469 68.3125 173.203 68.0625 172.078 67.5625C170.953 67.0521 169.99 66.3333 169.188 65.4062C168.385 64.4688 167.771 63.3385 167.344 62.0156C166.927 60.6927 166.719 59.2135 166.719 57.5781V55.6875C166.719 54.0521 166.932 52.5729 167.359 51.25C167.797 49.9271 168.422 48.7969 169.234 47.8594C170.047 46.9115 171.021 46.1875 172.156 45.6875C173.302 45.1875 174.589 44.9375 176.016 44.9375C177.828 44.9375 179.359 45.2708 180.609 45.9375C181.859 46.6042 182.828 47.526 183.516 48.7031C184.214 49.8802 184.641 51.2292 184.797 52.75H180.891C180.786 51.7708 180.557 50.9323 180.203 50.2344C179.859 49.5365 179.349 49.0052 178.672 48.6406C177.995 48.2656 177.109 48.0781 176.016 48.0781C175.12 48.0781 174.339 48.2448 173.672 48.5781C173.005 48.9115 172.448 49.401 172 50.0469C171.552 50.6927 171.214 51.4896 170.984 52.4375C170.766 53.375 170.656 54.4479 170.656 55.6562V57.5781C170.656 58.724 170.755 59.7656 170.953 60.7031C171.161 61.6302 171.474 62.4271 171.891 63.0938C172.318 63.7604 172.859 64.276 173.516 64.6406C174.172 65.0052 174.958 65.1875 175.875 65.1875C176.99 65.1875 177.891 65.0104 178.578 64.6562C179.276 64.3021 179.802 63.7865 180.156 63.1094C180.521 62.4219 180.76 61.5833 180.875 60.5938Z" fill="white"/>
</svg>
